{
  "accessors": [
    {
      "bufferView": 0,
      "byteOffset": 0,
      "componentType": 5123,
      "count": 756,
      "type": "SCALAR",
      "max": [347],
      "min": [0]
    },
    {
      "bufferView": 1,
      "byteOffset": 0,
      "componentType": 5126,
      "count": 348,
      "type": "VEC3",
      "max": [210, 90, 0],
      "min": [0, -85, -60],
      "name": "POSITION"
    },
    {
      "bufferView": 1,
      "byteOffset": 12,
      "componentType": 5126,
      "count": 348,
      "type": "VEC3",
      "max": [1.0000044107437134, 1.0000044107437134, 1.0000044107437134],
      "min": [-1.0000044107437134, -1.0000044107437134, -1.0000044107437134],
      "name": "NORMAL"
    }
  ],
  "asset": { "generator": "Aspose.3D 24.6.0", "version": "2.0" },
  "buffers": [
    {
      "uri": "data:application/octet-stream;base64,",
      "byteLength": 9872
    }
  ],
  "bufferViews": [
    { "buffer": 0, "byteOffset": 0, "byteLength": 1512, "target": 34963 },
    {
      "buffer": 0,
      "byteOffset": 1516,
      "byteLength": 8352,
      "byteStride": 24,
      "target": 34962
    }
  ],
  "materials": [
    {
      "name": "Default",
      "pbrMetallicRoughness": {
        "baseColorFactor": [
          0.52252197265625, 0.52252197265625, 0.52252197265625, 1
        ],
        "metallicFactor": 0,
        "roughnessFactor": 0.699999988079071
      },
      "emissiveFactor": [0, 0, 0],
      "alphaMode": "OPAQUE",
      "doubleSided": true
    }
  ],
  "meshes": [
    {
      "primitives": [
        {
          "attributes": { "POSITION": 1, "NORMAL": 2 },
          "indices": 0,
          "material": 0,
          "mode": 4
        }
      ]
    }
  ],
  "nodes": [
    {
      "matrix": [0.01, 0, 0, 0, 0, 0.01, 0, 0, 0, 0, 0.01, 0, 0, 0, 0, 1],
      "mesh": 0,
      "name": "Solid2"
    }
  ],
  "scene": 0,
  "scenes": [{ "nodes": [0] }]
}
